<svg width="63" height="40" viewBox="0 0 63 40" fill="none" xmlns="http://www.w3.org/2000/svg">
<path d="M12.3203 15.1299H14.8203C16.8303 15.1299 17.8303 16.5099 17.8303 18.5299C17.8303 20.5499 16.7803 21.8799 14.7503 21.8799H12.3203V15.1299ZM14.7203 21.0699C16.2403 21.0699 16.8703 20.0799 16.8703 18.5299C16.8703 16.9799 16.3103 15.9399 14.7703 15.9399H13.2503V21.0799H14.7103L14.7203 21.0699Z" fill="#FF7610"/>
<path d="M18.8203 20.3599V16.9999H19.6603V20.3099C19.6603 20.9299 20.0503 21.2899 20.7203 21.2899C21.4603 21.2899 21.9503 20.7199 21.9503 19.9699V16.9999H22.7903V21.8699H21.9603V21.1899H21.9403C21.5903 21.6699 21.1703 21.9799 20.4703 21.9799C19.4603 21.9799 18.8203 21.3699 18.8203 20.3599Z" fill="#FF7610"/>
<path d="M23.7705 20.5899C23.7705 19.4599 24.6005 19.2099 25.8705 19.0599C26.5905 18.9799 27.0505 18.8599 27.0505 18.3599C27.0505 17.8299 26.6805 17.5099 26.0105 17.5099C25.2405 17.5099 24.8705 17.8699 24.8405 18.4499H24.0205C24.0605 17.6199 24.6805 16.8899 26.0005 16.8899C26.4605 16.8899 26.8705 16.9699 27.1805 17.1499C27.5905 17.3999 27.8305 17.8199 27.8305 18.4799V20.7599C27.8305 21.1499 27.9205 21.3599 28.3505 21.2699H28.3905V21.8599C28.2705 21.8999 28.1405 21.9299 27.9405 21.9299C27.4205 21.9299 27.1705 21.6899 27.0805 21.1699C26.7705 21.5999 26.2705 21.9899 25.4505 21.9899C24.5205 21.9899 23.8005 21.5399 23.8005 20.5999L23.7705 20.5899ZM27.0605 20.0799V19.2799C26.8105 19.4299 26.3905 19.5499 25.9905 19.6199C25.1905 19.7599 24.6705 19.8999 24.6705 20.5699C24.6705 21.1999 25.1505 21.3499 25.6405 21.3499C26.6105 21.3499 27.0705 20.6299 27.0705 20.0699L27.0605 20.0799Z" fill="#FF7610"/>
<path d="M29.1006 15.1299H29.9406V21.8799H29.1006V15.1299Z" fill="#FF7610"/>
<path d="M35.66 18.7199H32.18V21.8799H31.25V15.1299H32.18V17.9699H35.66V15.1299H36.59V21.8799H35.66V18.7199Z" fill="#FF7610"/>
<path d="M40.0001 22.0099C38.5001 22.0099 37.6201 20.8699 37.6201 19.4399C37.6201 18.0099 38.5501 16.8799 39.9501 16.8799C40.6801 16.8799 41.2401 17.1599 41.6201 17.6299C42.0201 18.1099 42.2201 18.8099 42.2201 19.6399H38.4801C38.5401 20.5899 39.0601 21.3199 40.0001 21.3199C40.6701 21.3199 41.1301 20.9999 41.2901 20.4899H42.1201C41.9001 21.3999 41.1201 22.0099 40.0001 22.0099ZM38.5001 19.0399H41.3201C41.2701 18.1099 40.7901 17.5399 39.9501 17.5399C39.1101 17.5399 38.6101 18.1699 38.5001 19.0399Z" fill="#FF7610"/>
<path d="M42.9199 20.5899C42.9199 19.4599 43.7499 19.2099 45.0199 19.0599C45.7399 18.9799 46.1999 18.8599 46.1999 18.3599C46.1999 17.8299 45.8299 17.5099 45.1599 17.5099C44.3899 17.5099 44.0199 17.8699 43.9899 18.4499H43.1699C43.2099 17.6199 43.8299 16.8899 45.1499 16.8899C45.6099 16.8899 46.0199 16.9699 46.3299 17.1499C46.7399 17.3999 46.9799 17.8199 46.9799 18.4799V20.7599C46.9799 21.1499 47.0699 21.3599 47.4999 21.2699H47.5399V21.8599C47.4199 21.8999 47.2899 21.9299 47.0899 21.9299C46.5699 21.9299 46.3199 21.6899 46.2299 21.1699C45.92 21.5999 45.4199 21.9899 44.5999 21.9899C43.6699 21.9899 42.9499 21.5399 42.9499 20.5999L42.9199 20.5899ZM46.2099 20.0799V19.2799C45.9599 19.4299 45.5399 19.5499 45.1399 19.6199C44.3399 19.7599 43.8199 19.8999 43.8199 20.5699C43.8199 21.1999 44.2999 21.3499 44.7899 21.3499C45.7599 21.3499 46.2199 20.6299 46.2199 20.0699L46.2099 20.0799Z" fill="#FF7610"/>
<path d="M49.7001 21.9099C49.0501 21.9099 48.5901 21.6398 48.5901 20.9198V17.6498H47.8301V16.9998H48.5901V15.4698H49.4201V16.9998H50.4301V17.6498H49.4201V20.7298C49.4201 21.0798 49.6101 21.1798 49.9201 21.1798C50.0601 21.1798 50.2601 21.1398 50.3501 21.1198H50.3801V21.8298C50.1501 21.8798 49.9201 21.9099 49.7001 21.9099Z" fill="#FF7610"/>
<path d="M56.7399 5.75L55.9799 22.56C55.9799 27.3 52.1399 31.13 47.4099 31.13H15.2999C10.3799 31.13 6.38986 27.14 6.38986 22.22L5.62988 5.73999" stroke="white" stroke-width="1.5" stroke-linecap="round" stroke-linejoin="round"/>
<path d="M5.63 5.75H0.75" stroke="white" stroke-width="1.5" stroke-linecap="round" stroke-linejoin="round"/>
<path d="M61.6102 5.75H56.7402" stroke="white" stroke-width="1.5" stroke-linecap="round" stroke-linejoin="round"/>
<path d="M11.9297 0.5H50.4397" stroke="#FF7610" stroke-linecap="round" stroke-linejoin="round"/>
<path d="M11.9297 38.76H50.4397" stroke="#FF7610" stroke-linecap="round" stroke-linejoin="round"/>
</svg>
