<svg width="63" height="37" viewBox="0 0 63 37" fill="none" xmlns="http://www.w3.org/2000/svg">
<path d="M12.5701 11.03H15.0701C17.0801 11.03 18.08 12.41 18.08 14.43C18.08 16.45 17.0301 17.78 15.0001 17.78H12.5701V11.03ZM14.9701 16.97C16.4901 16.97 17.1201 15.98 17.1201 14.43C17.1201 12.88 16.5601 11.84 15.0201 11.84H13.5001V16.98H14.9601L14.9701 16.97Z" fill="#FF7610"/>
<path d="M19.0701 16.2601V12.9001H19.9101V16.2101C19.9101 16.8301 20.3001 17.1901 20.9701 17.1901C21.7101 17.1901 22.2 16.6201 22.2 15.8701V12.9001H23.0401V17.7701H22.2101V17.0901H22.1901C21.8401 17.5701 21.4201 17.8801 20.7201 17.8801C19.7101 17.8801 19.0701 17.2701 19.0701 16.2601Z" fill="#FF7610"/>
<path d="M24.02 16.49C24.02 15.36 24.85 15.11 26.12 14.96C26.84 14.88 27.3 14.76 27.3 14.26C27.3 13.73 26.93 13.41 26.26 13.41C25.49 13.41 25.12 13.77 25.09 14.35H24.27C24.31 13.52 24.93 12.79 26.25 12.79C26.71 12.79 27.12 12.87 27.43 13.05C27.84 13.3 28.08 13.72 28.08 14.38V16.66C28.08 17.05 28.17 17.26 28.6 17.17H28.64V17.76C28.52 17.8 28.39 17.83 28.19 17.83C27.67 17.83 27.42 17.59 27.33 17.07C27.02 17.5 26.52 17.89 25.7 17.89C24.77 17.89 24.05 17.44 24.05 16.5L24.02 16.49ZM27.31 15.98V15.18C27.06 15.33 26.64 15.45 26.24 15.52C25.44 15.66 24.92 15.8 24.92 16.47C24.92 17.1 25.4 17.25 25.89 17.25C26.86 17.25 27.32 16.53 27.32 15.97L27.31 15.98Z" fill="#FF7610"/>
<path d="M29.3501 11.03H30.1901V17.78H29.3501V11.03Z" fill="#FF7610"/>
<path d="M35.91 14.62H32.43V17.78H31.5V11.03H32.43V13.87H35.91V11.03H36.84V17.78H35.91V14.62Z" fill="#FF7610"/>
<path d="M40.2501 17.91C38.7501 17.91 37.8701 16.77 37.8701 15.34C37.8701 13.91 38.8001 12.78 40.2001 12.78C40.9301 12.78 41.4901 13.06 41.8701 13.53C42.2701 14.01 42.4701 14.71 42.4701 15.54H38.7301C38.7901 16.49 39.3101 17.22 40.2501 17.22C40.9201 17.22 41.3801 16.9 41.5401 16.39H42.3701C42.1501 17.3 41.3701 17.91 40.2501 17.91ZM38.7501 14.94H41.5701C41.5201 14.01 41.0401 13.44 40.2001 13.44C39.3601 13.44 38.8601 14.07 38.7501 14.94Z" fill="#FF7610"/>
<path d="M43.17 16.49C43.17 15.36 44.0001 15.11 45.2701 14.96C45.9901 14.88 46.45 14.76 46.45 14.26C46.45 13.73 46.0801 13.41 45.4101 13.41C44.6401 13.41 44.2701 13.77 44.2401 14.35H43.42C43.46 13.52 44.0801 12.79 45.4001 12.79C45.8601 12.79 46.27 12.87 46.58 13.05C46.99 13.3 47.2301 13.72 47.2301 14.38V16.66C47.2301 17.05 47.3201 17.26 47.7501 17.17H47.7901V17.76C47.6701 17.8 47.5401 17.83 47.3401 17.83C46.8201 17.83 46.5701 17.59 46.4801 17.07C46.1701 17.5 45.6701 17.89 44.8501 17.89C43.9201 17.89 43.2 17.44 43.2 16.5L43.17 16.49ZM46.4601 15.98V15.18C46.2101 15.33 45.79 15.45 45.39 15.52C44.59 15.66 44.0701 15.8 44.0701 16.47C44.0701 17.1 44.5501 17.25 45.0401 17.25C46.0101 17.25 46.4701 16.53 46.4701 15.97L46.4601 15.98Z" fill="#FF7610"/>
<path d="M49.9501 17.8101C49.3001 17.8101 48.8401 17.5401 48.8401 16.8201V13.5501H48.0801V12.9001H48.8401V11.3701H49.6701V12.9001H50.6801V13.5501H49.6701V16.6301C49.6701 16.9801 49.8601 17.0801 50.1701 17.0801C50.3101 17.0801 50.5101 17.0401 50.6001 17.0201H50.6301V17.7301C50.4001 17.7801 50.1701 17.8101 49.9501 17.8101Z" fill="#FF7610"/>
<path d="M56.99 1.65015L56.23 18.4601C56.23 23.2001 52.39 27.0301 47.66 27.0301H15.55C10.63 27.0301 6.63998 23.0401 6.63998 18.1201L5.88 1.64014" stroke="white" stroke-width="2" stroke-linecap="round" stroke-linejoin="round"/>
<path d="M5.88 1.65015H1" stroke="white" stroke-width="2" stroke-linecap="round" stroke-linejoin="round"/>
<path d="M61.8602 1.65015H56.9902" stroke="white" stroke-width="2" stroke-linecap="round" stroke-linejoin="round"/>
<line x1="12.2502" y1="32.21" x2="50.6102" y2="32.21" stroke="#FF7610" stroke-width="1.64" stroke-linecap="round"/>
<line x1="12.2502" y1="0.820137" x2="50.6102" y2="0.820137" stroke="#FF7610" stroke-width="1.64" stroke-linecap="round"/>
</svg>
