<svg width="27" height="27" viewBox="0 0 27 27" fill="none" xmlns="http://www.w3.org/2000/svg">
<path d="M13.07 25.995C20.1503 25.995 25.89 20.2553 25.89 13.175C25.89 6.0947 20.1503 0.35498 13.07 0.35498C5.98972 0.35498 0.25 6.0947 0.25 13.175C0.25 20.2553 5.98972 25.995 13.07 25.995Z" stroke="#808080" stroke-width="0.5" stroke-linecap="round" stroke-linejoin="round"/>
<path d="M14.5361 20.1799V20.4299C14.5361 20.8999 14.1461 21.2899 13.6761 21.2899H12.7061C12.2361 21.2899 11.8461 20.8999 11.8461 20.4299V20.1799H14.5361ZM15.0861 19.1799H11.3361C11.0661 19.1799 10.8461 19.4 10.8461 19.67V20.4299C10.8461 21.4599 11.6761 22.2899 12.7061 22.2899H13.6761C14.7061 22.2899 15.5361 21.4599 15.5361 20.4299V19.6299C15.5361 19.3799 15.3361 19.1799 15.0861 19.1799Z" fill="#818181"/>
<path d="M13.496 5.32007C15.276 5.32007 16.916 6.32008 17.666 7.86008C18.706 9.98008 18.436 12.2101 16.936 13.8601C16.386 14.5001 15.116 16.1001 14.686 17.6501H11.706C11.286 16.1001 10.016 14.5101 9.43603 13.8401C7.95603 12.2201 7.68604 9.98006 8.72604 7.87006C9.47604 6.33006 11.116 5.33008 12.896 5.33008C12.976 5.33008 13.056 5.33008 13.146 5.33008C13.156 5.33008 13.176 5.33008 13.196 5.33008C13.216 5.33008 13.236 5.33008 13.256 5.33008C13.336 5.33008 13.416 5.33008 13.496 5.33008M13.496 4.32007C13.396 4.32007 13.306 4.32007 13.206 4.32007H13.196H13.186C13.086 4.32007 12.996 4.32007 12.896 4.32007C10.766 4.32007 8.76602 5.49007 7.82602 7.42007C6.50602 10.1201 7.10604 12.7701 8.69604 14.5101C9.14604 15.0301 10.536 16.7401 10.796 18.1901C10.846 18.4601 11.086 18.6501 11.366 18.6501H14.996C15.276 18.6501 15.536 18.4601 15.586 18.1801C15.856 16.7301 17.236 15.0401 17.686 14.5201C19.276 12.7801 19.876 10.1301 18.556 7.43005C17.616 5.51005 15.616 4.33008 13.486 4.33008L13.496 4.32007Z" fill="#818181"/>
</svg>
