<svg width="28" height="28" viewBox="0 0 28 28" fill="none" xmlns="http://www.w3.org/2000/svg">
<path d="M13.57 26.39C20.6503 26.39 26.39 20.6503 26.39 13.57C26.39 6.48972 20.6503 0.75 13.57 0.75C6.48972 0.75 0.75 6.48972 0.75 13.57C0.75 20.6503 6.48972 26.39 13.57 26.39Z" stroke="#808080" stroke-width="1.5" stroke-linecap="round" stroke-linejoin="round"/>
<path d="M19.1204 9.28195C19.1204 6.34321 16.5154 3.98628 13.4078 4.23282C11.3156 4.40046 9.59254 5.80081 8.87462 7.69423C7.82851 10.4357 10.0438 11.7276 11.172 13.6407C11.3771 13.9958 11.3258 14.903 11.2643 15.5539C11.2233 15.9286 11.5309 16.254 11.9309 16.254H15.8692C16.2282 16.254 16.5051 15.9582 16.4641 15.6229C16.3923 14.9721 16.3307 14.0056 16.5461 13.6506C17.4384 12.1517 19.1306 11.1458 19.1306 9.29179L19.1204 9.28195Z" stroke="#808080" stroke-width="1.5" stroke-linecap="round" stroke-linejoin="round"/>
<path d="M16.6485 19.2717H11.0692" stroke="#808080" stroke-width="1.5" stroke-linecap="round" stroke-linejoin="round"/>
<path d="M15.5923 22.1216H12.136" stroke="#808080" stroke-width="1.5" stroke-linecap="round" stroke-linejoin="round"/>
</svg>
