<svg width="31" height="32" viewBox="0 0 31 32" fill="none" xmlns="http://www.w3.org/2000/svg">
<path d="M19.9451 4.81006C19.9451 4.81006 21.2851 6.15005 21.2851 8.40005C21.2851 10.6501 19.9451 11.9901 19.9451 11.9901" stroke="white" stroke-linecap="round" stroke-linejoin="round"/>
<path d="M23.2551 2.77002C23.2551 2.77002 24.5951 4.88001 24.5951 8.40001C24.5951 11.92 23.2551 14.03 23.2551 14.03" stroke="white" stroke-linecap="round" stroke-linejoin="round"/>
<path d="M2.63501 10.2V6.59999C2.63501 6.08999 2.83502 5.59 3.20502 5.23C3.56502 4.87 4.06501 4.66 4.57501 4.66H7.38501C7.57501 4.66 7.75501 4.6 7.91501 4.5L13.735 0.660004C13.885 0.560004 14.055 0.51 14.225 0.5C14.405 0.5 14.575 0.529995 14.725 0.619995C14.875 0.699995 15.005 0.829996 15.095 0.979996C15.185 1.13 15.235 1.3 15.235 1.48V15.34C15.235 15.52 15.185 15.69 15.095 15.84C15.005 15.99 14.875 16.11 14.725 16.2C14.575 16.28 14.395 16.32 14.225 16.32C14.045 16.32 13.885 16.26 13.735 16.16L7.91501 12.32C7.75501 12.22 7.57501 12.16 7.38501 12.16H4.57501C4.06501 12.16 3.56502 11.96 3.20502 11.59C2.84502 11.23 2.63501 10.73 2.63501 10.22V10.2Z" stroke="white" stroke-linecap="round" stroke-linejoin="round"/>
<path d="M3.53803 28.25L1.29703 21.815H2.17003L3.75403 26.603L4.00603 27.467H4.02403C4.12603 27.083 4.21003 26.795 4.27603 26.603L5.84203 21.815H6.68803L4.42903 28.25H3.53803ZM10.3034 27.674C9.89543 28.142 9.35243 28.376 8.67443 28.376C7.99643 28.376 7.45043 28.142 7.03643 27.674C6.62843 27.206 6.42443 26.624 6.42443 25.928C6.42443 25.232 6.62843 24.65 7.03643 24.182C7.45043 23.714 7.99643 23.48 8.67443 23.48C9.35243 23.48 9.89543 23.714 10.3034 24.182C10.7114 24.65 10.9154 25.232 10.9154 25.928C10.9154 26.624 10.7114 27.206 10.3034 27.674ZM7.55843 27.251C7.82243 27.593 8.19443 27.764 8.67443 27.764C9.15443 27.764 9.52343 27.593 9.78143 27.251C10.0394 26.903 10.1684 26.462 10.1684 25.928C10.1684 25.388 10.0364 24.947 9.77243 24.605C9.51443 24.257 9.14843 24.083 8.67443 24.083C8.19443 24.083 7.82243 24.257 7.55843 24.605C7.30043 24.953 7.17143 25.394 7.17143 25.928C7.17143 26.462 7.30043 26.903 7.55843 27.251ZM11.6695 28.25V21.815H12.3985V28.25H11.6695ZM17.1079 28.25H16.3789V27.611H16.3609C15.9949 28.109 15.5269 28.358 14.9569 28.358C14.4769 28.358 14.0959 28.223 13.8139 27.953C13.5319 27.677 13.3909 27.299 13.3909 26.819V23.597H14.1199V26.801C14.1199 27.101 14.2099 27.335 14.3899 27.503C14.5759 27.671 14.8339 27.755 15.1639 27.755C15.5299 27.755 15.8239 27.632 16.0459 27.386C16.2679 27.14 16.3789 26.831 16.3789 26.459V23.597H17.1079V28.25ZM18.0936 28.25V23.597H18.8226V24.263H18.8406C18.9906 24.029 19.1856 23.843 19.4256 23.705C19.6656 23.561 19.9266 23.489 20.2086 23.489C20.8146 23.489 21.2196 23.765 21.4236 24.317H21.4416C21.5856 24.059 21.7866 23.858 22.0446 23.714C22.3026 23.564 22.5756 23.489 22.8636 23.489C23.2896 23.489 23.6316 23.621 23.8896 23.885C24.1476 24.143 24.2766 24.509 24.2766 24.983V28.25H23.5476V25.019C23.5476 24.737 23.4636 24.515 23.2956 24.353C23.1336 24.185 22.9326 24.101 22.6926 24.101C22.3866 24.101 22.1196 24.221 21.8916 24.461C21.6636 24.701 21.5496 24.998 21.5496 25.352V28.25H20.8206V25.019C20.8206 24.737 20.7456 24.515 20.5956 24.353C20.4516 24.185 20.2596 24.101 20.0196 24.101C19.7196 24.101 19.4436 24.224 19.1916 24.47C18.9456 24.71 18.8226 25.004 18.8226 25.352V28.25H18.0936ZM27.2281 28.376C26.5381 28.376 25.9891 28.145 25.5811 27.683C25.1791 27.215 24.9781 26.63 24.9781 25.928C24.9781 25.238 25.1821 24.659 25.5901 24.191C26.0041 23.717 26.5351 23.48 27.1831 23.48C27.8671 23.48 28.3951 23.72 28.7671 24.2C29.1391 24.674 29.3251 25.307 29.3251 26.099H25.7251C25.7551 26.591 25.8991 26.993 26.1571 27.305C26.4211 27.611 26.7781 27.764 27.2281 27.764C27.9241 27.764 28.3531 27.446 28.5151 26.81H29.2261C29.1181 27.308 28.8901 27.695 28.5421 27.971C28.1941 28.241 27.7561 28.376 27.2281 28.376ZM28.1551 24.452C27.9211 24.188 27.5971 24.056 27.1831 24.056C26.7691 24.056 26.4391 24.194 26.1931 24.47C25.9531 24.746 25.8031 25.106 25.7431 25.55H28.5421C28.5181 25.082 28.3891 24.716 28.1551 24.452Z" fill="white"/>
</svg>
