<svg width="66" height="12" viewBox="0 0 66 12" fill="none" xmlns="http://www.w3.org/2000/svg">
<g opacity="0.5">
<path d="M9.82629 11.1953C10.0666 11.3984 10.4214 11.3729 10.6189 11.1383C10.8164 10.9037 10.7817 10.5488 10.5414 10.3457L10.1838 10.7705L9.82629 11.1953ZM10.0467 1.54327C10.2633 1.32626 10.2581 0.970525 10.035 0.748707C9.81187 0.526887 9.45536 0.522986 9.23869 0.739992L9.64269 1.14163L10.0467 1.54327ZM10.1838 10.7705L10.5414 10.3457C9.36217 9.34888 8.13968 8.29347 7.72917 6.9434C7.34554 5.68175 7.6332 3.96057 10.0467 1.54327L9.64269 1.14163L9.23869 0.739992C6.68639 3.29634 6.09735 5.41976 6.65211 7.24422C7.17998 8.98026 8.71096 10.2525 9.82629 11.1953L10.1838 10.7705Z" fill="white"/>
<path d="M15.1339 11.1953C15.3742 11.3984 15.729 11.3729 15.9265 11.1383C16.124 10.9037 16.0893 10.5488 15.849 10.3457L15.4915 10.7705L15.1339 11.1953ZM15.3543 1.54327C15.571 1.32626 15.5657 0.970525 15.3426 0.748707C15.1195 0.526887 14.763 0.522986 14.5463 0.739992L14.9503 1.14163L15.3543 1.54327ZM15.4915 10.7705L15.849 10.3457C14.6698 9.34888 13.4473 8.29347 13.0368 6.9434C12.6532 5.68175 12.9408 3.96057 15.3543 1.54327L14.9503 1.14163L14.5463 0.739992C11.994 3.29634 11.405 5.41976 11.9597 7.24422C12.4876 8.98026 14.0186 10.2525 15.1339 11.1953L15.4915 10.7705Z" fill="white"/>
<path d="M22.73 9.14C21.77 9.14 21.03 8.90333 20.51 8.43C19.9966 7.95667 19.72 7.34 19.68 6.58H20.56C20.68 7.80667 21.4166 8.42 22.77 8.42C23.2833 8.42 23.6933 8.30667 24 8.08C24.3133 7.84667 24.47 7.51333 24.47 7.08C24.47 6.88667 24.4333 6.71667 24.36 6.57C24.2866 6.42333 24.1966 6.30333 24.09 6.21C23.99 6.11667 23.8366 6.03 23.63 5.95C23.4233 5.87 23.23 5.80667 23.05 5.76C22.8766 5.71333 22.6366 5.65667 22.33 5.59C21.9633 5.51 21.66 5.43 21.42 5.35C21.18 5.26333 20.94 5.14667 20.7 5C20.46 4.85333 20.28 4.66667 20.16 4.44C20.0466 4.20667 19.99 3.92667 19.99 3.6C19.99 3.01333 20.21 2.55333 20.65 2.22C21.0966 1.88 21.6866 1.71 22.42 1.71C24.0266 1.71 24.93 2.45333 25.13 3.94H24.28C24.2133 3.43333 24.0233 3.05333 23.71 2.8C23.3966 2.54 22.9733 2.41 22.44 2.41C21.9466 2.41 21.5533 2.51 21.26 2.71C20.9733 2.91 20.83 3.19333 20.83 3.56C20.83 3.72 20.86 3.86333 20.92 3.99C20.9866 4.11 21.07 4.21333 21.17 4.3C21.2766 4.38 21.4133 4.45333 21.58 4.52C21.7533 4.58667 21.9233 4.64333 22.09 4.69C22.2566 4.73 22.46 4.77333 22.7 4.82C23.0333 4.88667 23.3066 4.95 23.52 5.01C23.7333 5.06333 23.97 5.14667 24.23 5.26C24.49 5.37333 24.69 5.50333 24.83 5.65C24.9766 5.79667 25.1 5.99 25.2 6.23C25.3066 6.46333 25.36 6.73667 25.36 7.05C25.36 7.70333 25.1166 8.21667 24.63 8.59C24.15 8.95667 23.5166 9.14 22.73 9.14ZM27.0797 1.85V4.51H27.0997C27.4997 3.97667 28.0464 3.71 28.7397 3.71C29.2864 3.71 29.7131 3.85333 30.0197 4.14C30.3264 4.42667 30.4797 4.83667 30.4797 5.37V9H29.6697V5.44C29.6697 5.10667 29.5664 4.85 29.3597 4.67C29.1531 4.48333 28.8664 4.39 28.4997 4.39C28.0864 4.39 27.7464 4.52333 27.4797 4.79C27.2131 5.05667 27.0797 5.4 27.0797 5.82V9H26.2697V1.85H27.0797ZM35.6129 9.05C35.0996 9.05 34.8029 8.79333 34.7229 8.28H34.7129C34.2863 8.82667 33.7129 9.1 32.9929 9.1C32.4796 9.1 32.0596 8.97667 31.7329 8.73C31.4063 8.48333 31.2429 8.12667 31.2429 7.66C31.2429 7.42 31.2796 7.21333 31.3529 7.04C31.4329 6.86 31.5329 6.71667 31.6529 6.61C31.7729 6.49667 31.9363 6.4 32.1429 6.32C32.3563 6.23333 32.5596 6.17 32.7529 6.13C32.9463 6.08333 33.1929 6.03667 33.4929 5.99C33.6863 5.96333 33.8229 5.94333 33.9029 5.93C33.9896 5.91 34.0996 5.88333 34.2329 5.85C34.3663 5.81 34.4596 5.76667 34.5129 5.72C34.5663 5.67333 34.6163 5.61 34.6629 5.53C34.7096 5.45 34.7329 5.35667 34.7329 5.25C34.7329 4.95667 34.6296 4.73333 34.4229 4.58C34.2229 4.42 33.9396 4.34 33.5729 4.34C32.7396 4.34 32.3096 4.72 32.2829 5.48H31.5029C31.5163 4.95333 31.6963 4.53 32.0429 4.21C32.3963 3.89 32.9029 3.73 33.5629 3.73C34.8363 3.73 35.4729 4.27667 35.4729 5.37V7.83C35.4729 8.05667 35.5096 8.21667 35.5829 8.31C35.6629 8.40333 35.8096 8.42667 36.0229 8.38H36.0529V8.97C35.9196 9.02333 35.7729 9.05 35.6129 9.05ZM33.1729 8.48C33.6729 8.48 34.0596 8.33667 34.3329 8.05C34.6063 7.75667 34.7429 7.43667 34.7429 7.09V6.21C34.4963 6.36333 34.1029 6.49 33.5629 6.59C33.3629 6.63 33.2063 6.66333 33.0929 6.69C32.9796 6.71 32.8496 6.75 32.7029 6.81C32.5563 6.86333 32.4463 6.92333 32.3729 6.99C32.2996 7.05667 32.2363 7.14667 32.1829 7.26C32.1296 7.36667 32.1029 7.49333 32.1029 7.64C32.1029 8.2 32.4596 8.48 33.1729 8.48ZM40.0506 9L38.2206 6.21L37.4606 6.93V9H36.6506V1.85H37.4606V6.04L39.7306 3.83H40.7606L38.7806 5.69L41.0006 9H40.0506ZM43.4504 9.14C42.6838 9.14 42.0738 8.88333 41.6204 8.37C41.1738 7.85 40.9504 7.2 40.9504 6.42C40.9504 5.65333 41.1771 5.01 41.6304 4.49C42.0904 3.96333 42.6804 3.7 43.4004 3.7C44.1604 3.7 44.7471 3.96667 45.1604 4.5C45.5738 5.02667 45.7804 5.73 45.7804 6.61H41.7804C41.8138 7.15667 41.9738 7.60333 42.2604 7.95C42.5538 8.29 42.9504 8.46 43.4504 8.46C44.2238 8.46 44.7004 8.10667 44.8804 7.4H45.6704C45.5504 7.95333 45.2971 8.38333 44.9104 8.69C44.5238 8.99 44.0371 9.14 43.4504 9.14ZM44.4804 4.78C44.2204 4.48667 43.8604 4.34 43.4004 4.34C42.9404 4.34 42.5738 4.49333 42.3004 4.8C42.0338 5.10667 41.8671 5.50667 41.8004 6H44.9104C44.8838 5.48 44.7404 5.07333 44.4804 4.78Z" fill="white"/>
<path d="M55.6561 0.804699C55.4159 0.601586 55.061 0.627118 54.8635 0.861725C54.6661 1.09633 54.7008 1.45117 54.941 1.65429L55.2986 1.22949L55.6561 0.804699ZM55.4357 10.4567C55.2191 10.6737 55.2243 11.0295 55.4474 11.2513C55.6706 11.4731 56.0271 11.477 56.2437 11.26L55.8397 10.8584L55.4357 10.4567ZM55.2986 1.22949L54.941 1.65429C56.1203 2.65112 57.3427 3.70653 57.7533 5.0566C58.1369 6.31825 57.8492 8.03943 55.4357 10.4567L55.8397 10.8584L56.2437 11.26C58.796 8.70366 59.3851 6.58024 58.8303 4.75578C58.3024 3.01974 56.7715 1.74754 55.6561 0.804699L55.2986 1.22949Z" fill="white"/>
<path d="M50.3485 0.804699C50.1082 0.601586 49.7534 0.627118 49.5559 0.861725C49.3584 1.09633 49.3931 1.45117 49.6334 1.65429L49.991 1.22949L50.3485 0.804699ZM50.1281 10.4567C49.9115 10.6737 49.9167 11.0295 50.1398 11.2513C50.3629 11.4731 50.7194 11.477 50.9361 11.26L50.5321 10.8584L50.1281 10.4567ZM49.991 1.22949L49.6334 1.65429C50.8126 2.65112 52.0351 3.70653 52.4456 5.0566C52.8293 6.31825 52.5416 8.03943 50.1281 10.4567L50.5321 10.8584L50.9361 11.26C53.4884 8.70366 54.0775 6.58024 53.5227 4.75578C52.9948 3.01974 51.4638 1.74754 50.3485 0.804699L49.991 1.22949Z" fill="white"/>
</g>
</svg>
