<svg width="66" height="12" viewBox="0 0 66 12" fill="none" xmlns="http://www.w3.org/2000/svg">
<g opacity="0.5">
<path d="M9.32629 11.1953C9.56656 11.3984 9.92142 11.3729 10.1189 11.1383C10.3164 10.9037 10.2817 10.5488 10.0414 10.3457L9.68384 10.7705L9.32629 11.1953ZM9.54668 1.54327C9.76334 1.32626 9.75811 0.970525 9.53499 0.748707C9.31187 0.526887 8.95536 0.522986 8.73869 0.739992L9.14269 1.14163L9.54668 1.54327ZM9.68384 10.7705L10.0414 10.3457C8.86217 9.34888 7.63968 8.29347 7.22917 6.9434C6.84554 5.68175 7.1332 3.96057 9.54668 1.54327L9.14269 1.14163L8.73869 0.739992C6.18639 3.29634 5.59735 5.41976 6.15211 7.24422C6.67998 8.98026 8.21096 10.2525 9.32629 11.1953L9.68384 10.7705Z" fill="white"/>
<path d="M14.6339 11.1953C14.8742 11.3984 15.229 11.3729 15.4265 11.1383C15.624 10.9037 15.5893 10.5488 15.349 10.3457L14.9915 10.7705L14.6339 11.1953ZM14.8543 1.54327C15.071 1.32626 15.0657 0.970525 14.8426 0.748707C14.6195 0.526887 14.263 0.522986 14.0463 0.739992L14.4503 1.14163L14.8543 1.54327ZM14.9915 10.7705L15.349 10.3457C14.1698 9.34888 12.9473 8.29347 12.5368 6.9434C12.1532 5.68175 12.4408 3.96057 14.8543 1.54327L14.4503 1.14163L14.0463 0.739992C11.494 3.29634 10.905 5.41976 11.4597 7.24422C11.9876 8.98026 13.5186 10.2525 14.6339 11.1953L14.9915 10.7705Z" fill="white"/>
<path d="M22.2233 9.16C21.2567 9.16 20.5067 8.95667 19.9733 8.55C19.44 8.13667 19.16 7.55 19.1333 6.79H20.5533C20.6 7.21667 20.75 7.52333 21.0033 7.71C21.2633 7.89667 21.65 7.99 22.1633 7.99C22.57 7.99 22.9033 7.91667 23.1633 7.77C23.4233 7.61667 23.5533 7.38333 23.5533 7.07C23.5533 6.95667 23.5367 6.85667 23.5033 6.77C23.4767 6.67667 23.4167 6.59667 23.3233 6.53C23.23 6.45667 23.15 6.4 23.0833 6.36C23.0167 6.31333 22.8933 6.26667 22.7133 6.22C22.5333 6.16667 22.3967 6.13 22.3033 6.11C22.21 6.08333 22.0367 6.04 21.7833 5.98C21.4767 5.90667 21.2233 5.84333 21.0233 5.79C20.83 5.73667 20.6133 5.65333 20.3733 5.54C20.14 5.42667 19.9533 5.30333 19.8133 5.17C19.68 5.03 19.5667 4.85 19.4733 4.63C19.38 4.40333 19.3333 4.14667 19.3333 3.86C19.3333 3.17333 19.5833 2.64667 20.0833 2.28C20.59 1.90667 21.2533 1.72 22.0733 1.72C22.8867 1.72 23.5367 1.91333 24.0233 2.3C24.51 2.68667 24.78 3.23667 24.8333 3.95H23.4433C23.4033 3.60333 23.2567 3.33667 23.0033 3.15C22.7567 2.96333 22.4433 2.87 22.0633 2.87C21.67 2.87 21.3567 2.94667 21.1233 3.1C20.89 3.25333 20.7733 3.45667 20.7733 3.71C20.7733 3.98333 20.8867 4.18333 21.1133 4.31C21.3467 4.43667 21.7533 4.56333 22.3333 4.69C22.68 4.76333 22.9633 4.83333 23.1833 4.9C23.4033 4.96 23.64 5.05 23.8933 5.17C24.1533 5.28333 24.3533 5.41 24.4933 5.55C24.64 5.69 24.76 5.87667 24.8533 6.11C24.9533 6.33667 25.0033 6.6 25.0033 6.9C25.0033 7.60667 24.7467 8.16 24.2333 8.56C23.72 8.96 23.05 9.16 22.2233 9.16ZM27.1193 1.85V4.54H27.1493C27.3427 4.26 27.5527 4.05667 27.7793 3.93C28.0127 3.79667 28.2993 3.73 28.6393 3.73C29.166 3.73 29.5927 3.91 29.9193 4.27C30.246 4.62333 30.4093 5.08333 30.4093 5.65V9H29.0493V5.85C29.0493 5.57 28.9693 5.34333 28.8093 5.17C28.656 4.99667 28.4393 4.91 28.1593 4.91C27.8593 4.91 27.6093 5.02 27.4093 5.24C27.216 5.46 27.1193 5.74333 27.1193 6.09V9H25.7593V1.85H27.1193ZM34.4776 9C34.411 8.91333 34.3576 8.72333 34.3176 8.43H34.2976C34.151 8.65 33.9643 8.82 33.7376 8.94C33.511 9.06 33.1943 9.12 32.7876 9.12C32.2476 9.12 31.8143 8.98333 31.4876 8.71C31.161 8.43667 30.9976 8.05 30.9976 7.55C30.9976 7.03 31.1776 6.65 31.5376 6.41C31.8976 6.16333 32.4043 5.99333 33.0576 5.9C33.5376 5.83333 33.8643 5.76667 34.0376 5.7C34.211 5.62667 34.2976 5.5 34.2976 5.32C34.2976 5.13333 34.2243 4.98667 34.0776 4.88C33.931 4.76667 33.7176 4.71 33.4376 4.71C32.8176 4.71 32.4876 4.95 32.4476 5.43H31.2376C31.2576 4.94333 31.4543 4.54 31.8276 4.22C32.201 3.9 32.741 3.74 33.4476 3.74C34.8876 3.74 35.6076 4.37 35.6076 5.63V8.24C35.6076 8.62667 35.6676 8.86333 35.7876 8.95V9H34.4776ZM33.1176 8.17C33.491 8.17 33.7843 8.07333 33.9976 7.88C34.2176 7.68667 34.3276 7.45667 34.3276 7.19V6.42C34.181 6.50667 33.8643 6.60667 33.3776 6.72C32.991 6.80667 32.7176 6.90667 32.5576 7.02C32.3976 7.12667 32.3176 7.29333 32.3176 7.52C32.3176 7.95333 32.5843 8.17 33.1176 8.17ZM39.8522 9L38.4122 6.66L37.8222 7.27V9H36.4722V1.85H37.8222V5.81L39.6422 3.87H41.2722L39.3822 5.82L41.5022 9H39.8522ZM43.9896 9.15C43.163 9.15 42.513 8.89667 42.0396 8.39C41.5663 7.87667 41.3296 7.22333 41.3296 6.43C41.3296 5.66333 41.5663 5.02333 42.0396 4.51C42.513 3.99 43.1196 3.73 43.8596 3.73C44.6663 3.73 45.2896 4.01 45.7296 4.57C46.1696 5.13 46.3896 5.88 46.3896 6.82H42.6696C42.723 7.22667 42.8596 7.54333 43.0796 7.77C43.2996 7.99 43.5996 8.1 43.9796 8.1C44.4796 8.1 44.8096 7.89 44.9696 7.47H46.3096C46.2096 7.95 45.9563 8.35 45.5496 8.67C45.143 8.99 44.623 9.15 43.9896 9.15ZM43.8796 4.78C43.2196 4.78 42.823 5.14667 42.6896 5.88H44.9696C44.9496 5.55333 44.8396 5.29 44.6396 5.09C44.4396 4.88333 44.1863 4.78 43.8796 4.78Z" fill="white"/>
<path d="M56.1561 0.804699C55.9159 0.601586 55.561 0.627118 55.3635 0.861725C55.1661 1.09633 55.2008 1.45117 55.441 1.65429L55.7986 1.22949L56.1561 0.804699ZM55.9357 10.4567C55.7191 10.6737 55.7243 11.0295 55.9474 11.2513C56.1706 11.4731 56.5271 11.477 56.7437 11.26L56.3397 10.8584L55.9357 10.4567ZM55.7986 1.22949L55.441 1.65429C56.6203 2.65112 57.8427 3.70653 58.2533 5.0566C58.6369 6.31825 58.3492 8.03943 55.9357 10.4567L56.3397 10.8584L56.7437 11.26C59.296 8.70366 59.8851 6.58024 59.3303 4.75578C58.8024 3.01974 57.2715 1.74754 56.1561 0.804699L55.7986 1.22949Z" fill="white"/>
<path d="M50.8485 0.804699C50.6082 0.601586 50.2534 0.627118 50.0559 0.861725C49.8584 1.09633 49.8931 1.45117 50.1334 1.65429L50.491 1.22949L50.8485 0.804699ZM50.6281 10.4567C50.4115 10.6737 50.4167 11.0295 50.6398 11.2513C50.8629 11.4731 51.2194 11.477 51.4361 11.26L51.0321 10.8584L50.6281 10.4567ZM50.491 1.22949L50.1334 1.65429C51.3126 2.65112 52.5351 3.70653 52.9456 5.0566C53.3293 6.31825 53.0416 8.03943 50.6281 10.4567L51.0321 10.8584L51.4361 11.26C53.9884 8.70366 54.5775 6.58024 54.0227 4.75578C53.4948 3.01974 51.9638 1.74754 50.8485 0.804699L50.491 1.22949Z" fill="white"/>
</g>
</svg>
