<svg width="39" height="68" viewBox="0 0 39 68" fill="none" xmlns="http://www.w3.org/2000/svg">
<path d="M6.5 9.09009L17.6451 1.5132C18.4678 0.949049 20.5322 0.949049 21.3549 1.5132L32.5 9.09009" stroke="#FCFCFB" stroke-width="2.18" stroke-linecap="round" stroke-linejoin="round"/>
<path d="M8.83879 30.842V29.7623H13.9275V30.842H12.0248V36.0901H10.7415V30.842H8.83879ZM15.5922 36.2228C14.8606 36.2228 14.2853 35.9986 13.8664 35.5502C13.4475 35.0959 13.2381 34.5177 13.2381 33.8156C13.2381 33.1371 13.4475 32.5707 13.8664 32.1164C14.2853 31.6562 14.8222 31.4261 15.4771 31.4261C16.191 31.4261 16.7427 31.6739 17.1321 32.1695C17.5215 32.6651 17.7162 33.3289 17.7162 34.1608H14.424C14.4712 34.5207 14.5921 34.8009 14.7868 35.0015C14.9815 35.1962 15.247 35.2936 15.5833 35.2936C16.0258 35.2936 16.3179 35.1077 16.4595 34.736H17.6454C17.5569 35.1608 17.3327 35.5148 16.9728 35.798C16.6129 36.0812 16.1527 36.2228 15.5922 36.2228ZM15.4948 32.3554C14.9107 32.3554 14.5597 32.6799 14.4417 33.3289H16.4595C16.4418 33.0398 16.3444 32.8067 16.1674 32.6297C15.9904 32.4468 15.7662 32.3554 15.4948 32.3554ZM18.2732 36.0901V31.55H19.4326V32.1607H19.4591C19.7482 31.671 20.1878 31.4261 20.7778 31.4261C21.061 31.4261 21.3117 31.4999 21.53 31.6474C21.7542 31.789 21.9224 31.9807 22.0345 32.2226H22.0522C22.3826 31.6916 22.8369 31.4261 23.4151 31.4261C23.8871 31.4261 24.2529 31.5707 24.5125 31.8598C24.778 32.143 24.9107 32.5353 24.9107 33.0368V36.0901H23.7071V33.2404C23.7071 32.7212 23.4741 32.4616 23.008 32.4616C22.7543 32.4616 22.5537 32.553 22.4062 32.7359C22.2646 32.9129 22.1938 33.1519 22.1938 33.4528V36.0901H20.9902V33.2404C20.9902 32.7212 20.7571 32.4616 20.291 32.4616C20.0491 32.4616 19.8515 32.553 19.6981 32.7359C19.5506 32.9129 19.4768 33.1519 19.4768 33.4528V36.0901H18.2732ZM25.654 37.5769V31.55H26.8133V32.1164H26.8399C27.1762 31.6562 27.6216 31.4261 28.1762 31.4261C28.7721 31.4261 29.25 31.6474 29.6099 32.0899C29.9698 32.5324 30.1498 33.1106 30.1498 33.8245C30.1498 34.5561 29.9698 35.1402 29.6099 35.5768C29.25 36.0075 28.7751 36.2228 28.1851 36.2228C27.5951 36.2228 27.1585 36.0075 26.8753 35.5768H26.8576V37.5769H25.654ZM27.9284 35.2228C28.2352 35.2228 28.4771 35.1018 28.6541 34.8599C28.837 34.618 28.9285 34.2847 28.9285 33.8599C28.9285 33.4056 28.8429 33.0486 28.6718 32.789C28.5007 32.5294 28.2382 32.3996 27.8842 32.3996C27.5243 32.3996 27.2588 32.5353 27.0877 32.8067C26.9166 33.0722 26.831 33.4233 26.831 33.8599C26.831 34.2788 26.9254 34.6121 27.1142 34.8599C27.303 35.1018 27.5744 35.2228 27.9284 35.2228Z" fill="white"/>
<path d="M6.5 58.0901L17.6451 65.667C18.4678 66.2311 20.5322 66.2311 21.3549 65.667L32.5 58.0901" stroke="#FCFCFB" stroke-width="2.18" stroke-linecap="round" stroke-linejoin="round"/>
</svg>
