<svg width="20" height="17" viewBox="0 0 20 17" fill="none" xmlns="http://www.w3.org/2000/svg">
<path d="M17.3398 4.5C17.3398 4.5 18.7999 5.95999 18.7999 8.37999C18.7999 10.8 17.3398 12.26 17.3398 12.26" stroke="#808080" stroke-linecap="round" stroke-linejoin="round"/>
<path d="M0.5 10.2V6.59999C0.5 6.08999 0.700007 5.59 1.07001 5.23C1.43001 4.87 1.93 4.65999 2.44 4.65999H5.25C5.44 4.65999 5.62 4.6 5.78 4.5L11.6 0.659988C11.75 0.559988 11.92 0.51 12.09 0.5C12.27 0.5 12.44 0.529995 12.59 0.619995C12.74 0.699995 12.87 0.829996 12.96 0.979996C13.05 1.13 13.1 1.3 13.1 1.48V15.34C13.1 15.52 13.05 15.69 12.96 15.84C12.87 15.99 12.74 16.11 12.59 16.2C12.44 16.28 12.26 16.32 12.09 16.32C11.91 16.32 11.75 16.26 11.6 16.16L5.78 12.32C5.62 12.22 5.44 12.16 5.25 12.16H2.44C1.93 12.16 1.43001 11.96 1.07001 11.59C0.710007 11.23 0.5 10.73 0.5 10.22V10.2Z" stroke="#808080" stroke-linecap="round" stroke-linejoin="round"/>
</svg>
